<svg width="889" height="889" viewBox="0 0 889 889" fill="none" xmlns="http://www.w3.org/2000/svg">
<path d="M0 444.5C0 199.04 199.011 0.0551758 444.503 0.0551758C689.996 0.0551758 888.988 199.04 888.988 444.5C888.988 689.961 689.978 888.946 444.503 888.946C199.028 888.946 0 689.961 0 444.5ZM135.556 449.804C138.529 620.403 279.256 756.293 449.877 753.319C620.5 750.346 756.406 609.637 753.433 439.038C750.427 268.497 609.726 132.641 439.093 135.611C268.491 138.572 132.593 279.254 135.555 449.834C135.556 449.848 135.556 449.86 135.556 449.874V449.804ZM10.8734 444.5C10.5838 488.796 17.3089 532.859 30.7993 575.053L136.387 532.52C129.668 506.674 124.01 472.414 124.01 444.5C124.001 267.53 267.475 124.059 444.468 124.049C444.48 124.049 444.491 124.049 444.503 124.049C621.502 124.049 765.013 267.525 765.013 444.5C765.034 470.469 761.907 496.345 755.696 521.559L862.804 559.249C873.044 521.86 878.212 483.265 878.168 444.5C878.097 205.121 683.967 10.9272 444.503 10.9272C205.04 10.9272 10.8734 205.121 10.8734 444.5Z" fill="#004098"/>
<path fill-rule="evenodd" clip-rule="evenodd" d="M354.563 365.214L319.272 344.796L283.983 324.378V283.594L283.947 242.811L319.272 222.446L354.545 202.063L389.871 222.481L425.16 242.899V283.683L425.178 324.466L389.906 344.849L354.563 365.214Z" fill="#004098"/>
<path fill-rule="evenodd" clip-rule="evenodd" d="M499.684 365.939L464.376 345.521L429.068 325.102V243.536L464.358 223.17L499.666 202.788L534.974 223.206L570.281 243.624V284.407L570.299 325.173L534.974 345.556L499.684 365.939Z" fill="#004098"/>
<path fill-rule="evenodd" clip-rule="evenodd" d="M427.283 492.532L392.01 472.114L356.685 451.695V370.146L391.975 349.781L427.283 329.381L462.59 349.799L497.916 370.217V451.784L462.608 472.167L427.283 492.532Z" fill="#004098"/>
<path fill-rule="evenodd" clip-rule="evenodd" d="M280.941 491.648L245.652 471.23L210.343 450.811V369.245L245.634 348.844L280.923 328.479L316.232 348.897L351.54 369.298V450.882L316.249 471.283L280.941 491.648Z" fill="#004098"/>
<path d="M162.66 612.389C164.763 616.155 163.066 618.559 160.273 620.062C157.479 621.564 154.491 620.857 152.016 622.218L148.904 623.986L149.116 625.082C150.159 626.974 159.725 629.926 161.016 632.419C162.607 635.229 158.239 639.384 156.86 640.144C149.982 643.945 130.57 642.672 126.892 642.725C124.028 637.598 127.263 632.525 126.026 630.35C124.258 627.168 123.586 630.05 120.033 629.732L119.466 631.499C120.757 631.747 121.659 633.267 122.313 634.416C123.338 636.184 124.081 638.889 121.606 640.268C120.457 640.869 105.977 645.889 104.828 646.526C101.733 648.294 98.6035 650.521 100.548 654.057C102.493 657.592 117.451 668.199 118.229 668.588L136.847 658.299C136.016 660.438 124.063 678.841 120.121 681.016C118.989 681.67 117.645 681.157 116.319 681.175L110.873 671.417C109.495 668.942 94.5901 660.58 93.1933 658.14C90.8645 653.896 91.4366 648.649 94.6254 645.005L109.176 636.927C109.618 637.563 109.512 637.934 110.661 637.298C111.81 636.661 110.149 636.379 111.298 635.724C112.448 635.07 111.298 636.909 112.518 636.255C113.155 635.901 112.518 635.035 115.365 633.497C115.524 632.843 115.683 633.285 115.064 632.136C113.897 630.067 82.6205 634.699 79.9154 629.855C78.9076 628.088 81.6834 624.322 82.6559 623.809C83.6283 623.297 104.881 624.163 113.067 619.814C111.528 619.125 109.141 618.205 108.487 617.021C106.118 612.778 115.029 609.207 115.665 606.768L125.531 601.27C128.042 603.427 128.466 600.952 129.58 602.896C130.216 604.081 128.873 611.47 129.58 612.619C131.648 616.314 142.486 612.46 143.724 611.682L153.112 606.503C156.401 604.735 161.457 610.268 162.642 612.389H162.66ZM149.876 630.863C143.813 629.095 139.622 624.269 133.61 627.593C131.418 628.812 129.544 631.128 131.312 634.31C132.249 636.078 145.616 637.28 148.215 635.795L151.557 633.904L149.876 630.863ZM100.372 605.831C97.4543 605.159 81.4182 605.495 78.5539 600.333C77.9352 599.219 78.5539 598.247 77.9529 597.062C77.1041 595.524 76.839 594.358 73.7626 596.072C71.4641 597.363 67.9458 610.622 69.8199 613.998C73.0023 619.761 87.5003 613.061 89.5689 612.089C98.303 608.164 99.6467 607.068 100.372 605.831ZM109.459 590.504C108.469 588.736 102.387 585.094 100.619 586.014C99.6467 586.562 96.7648 591.176 94.7492 592.307C93.6 592.943 90.559 594.075 88.5964 595.259C93.3879 598.919 101.238 603.197 107.373 599.785C109.99 598.353 111.139 593.562 109.441 590.504H109.459ZM132.338 572.826L137.218 581.665C139.322 585.413 135.256 591.6 132.638 593.067C126.414 596.497 121.783 588.736 115.824 587.764C115.241 586.756 115.648 585.342 114.852 583.715C119.272 581.594 120.669 582.248 121.535 581.736C122.667 581.117 122.614 579.968 123.851 579.331L122.543 576.962C121.854 575.849 121.694 577.74 121.093 576.556L118.564 571.995C119.218 571.553 118.953 571.093 120.103 570.457C123.763 568.442 127.83 571.624 132.338 572.826Z" fill="#00609A"/>
<path fill-rule="evenodd" clip-rule="evenodd" d="M132.338 572.826L137.218 581.665C139.322 585.413 135.256 591.6 132.638 593.067C126.415 596.497 121.783 588.736 115.824 587.764C115.241 586.756 115.648 585.342 114.852 583.715C119.273 581.594 120.669 582.248 121.535 581.736C122.667 581.117 122.614 579.968 123.851 579.331L122.543 576.962C121.854 575.849 121.694 577.74 121.093 576.556L118.565 571.995C119.219 571.553 118.954 571.093 120.103 570.457C123.763 568.442 127.83 571.624 132.338 572.826Z" fill="white"/>
<path fill-rule="evenodd" clip-rule="evenodd" d="M109.459 590.504C111.227 593.562 110.007 598.353 107.391 599.785C101.256 603.197 93.4057 598.919 88.6143 595.259C90.5768 594.039 93.7062 592.979 94.7671 592.272C96.7826 591.14 99.6645 586.526 100.637 585.978C102.334 585.2 108.469 588.736 109.459 590.504Z" fill="white"/>
<path fill-rule="evenodd" clip-rule="evenodd" d="M100.46 605.831C99.7351 607.068 98.3914 608.164 89.6573 612.089C87.6417 613.061 73.0907 619.761 69.9082 613.998C68.0342 610.622 71.5525 597.363 73.851 596.072C76.9273 594.305 77.1926 595.524 78.0413 597.062C78.6778 598.247 78.0413 599.219 78.6424 600.333C81.5066 605.495 97.5427 605.159 100.46 605.831Z" fill="white"/>
<path fill-rule="evenodd" clip-rule="evenodd" d="M162.66 612.389C164.763 616.155 163.066 618.559 160.273 620.062C157.479 621.564 154.491 620.857 152.015 622.218L148.904 623.986C148.78 624.605 148.497 623.986 149.116 625.082C150.159 626.974 159.724 629.926 161.016 632.419C162.607 635.229 158.239 639.384 156.86 640.144C149.982 643.945 130.57 642.672 126.892 642.725C124.028 637.598 127.263 632.525 126.026 630.35C124.258 627.168 123.586 630.05 120.032 629.732C119.887 630.334 119.698 630.925 119.466 631.499C120.756 631.747 121.659 633.267 122.313 634.416C123.338 636.184 124.081 638.889 121.606 640.268C120.456 640.869 105.977 645.889 104.827 646.526C101.733 648.294 98.6034 650.521 100.548 654.057C102.493 657.592 117.451 668.199 118.229 668.588L136.847 658.299C136.015 660.438 124.063 678.841 120.12 681.016C118.989 681.67 117.645 681.157 116.319 681.175L110.873 671.417C109.495 668.942 94.5899 660.58 93.1931 658.14C90.8643 653.896 91.4364 648.649 94.6252 645.005L109.176 636.927C109.618 637.563 109.512 637.934 110.661 637.298C111.81 636.661 110.149 636.379 111.298 635.724C112.447 635.07 111.298 636.909 112.517 636.255C113.154 635.901 112.517 635.035 115.365 633.497C115.524 632.843 115.683 633.285 115.064 632.136C113.897 630.067 82.6203 634.699 79.9152 629.855C78.9074 628.088 81.6833 624.322 82.6557 623.809C83.6281 623.297 104.88 624.163 113.066 619.814C111.528 619.125 109.141 618.205 108.487 617.021C106.118 612.778 115.029 609.207 115.665 606.768L125.531 601.27C128.041 603.427 128.465 600.952 129.58 602.896C130.216 604.081 128.872 611.47 129.58 612.619C131.648 616.314 142.486 612.46 143.723 611.682L153.112 606.503C156.401 604.735 161.457 610.268 162.642 612.389H162.66ZM149.876 630.863C143.812 629.095 139.622 624.269 133.61 627.593C131.418 628.812 129.544 631.128 131.312 634.31C132.249 636.078 145.616 637.28 148.215 635.795L151.556 633.904L149.876 630.863Z" fill="white"/>
<path d="M252.353 736.949C253.749 738.593 254.668 749.978 253.237 751.233C252.229 752.099 245.599 755.776 244.591 756.625C242.822 758.181 236.264 765.464 235.591 767.939L221.235 780.42C220.085 781.427 214.499 781.215 213.367 779.942C210.591 776.725 215.506 762.653 215.789 760.974C211.457 760.62 208.912 762.441 204.12 762.848C201.008 756.537 199.912 751.357 204.579 747.256C211.015 741.669 231.295 730.585 236.723 727.916C243.955 737.144 249.276 733.414 252.353 736.949ZM246.73 743.437C242.522 740.892 239.269 743.154 236.918 740.255L235.149 741.811C234.406 743.579 232.426 746.495 231.242 748.882C233.073 749.86 234.705 751.173 236.05 752.754L246.748 743.473L246.73 743.437ZM230.694 757.173L229.085 757.014L225.92 753.372C224.895 754.132 224.771 753.567 223.763 754.433C221.606 756.201 220.227 760.391 222.49 762.954L223.975 764.722L228.997 760.337C229.262 758.693 230.623 757.774 230.765 757.226L230.694 757.173ZM235.485 707.179C233.416 704.793 215.277 698.835 212.094 701.611C211.104 702.477 211.21 702.477 211.157 703.379L216.373 709.389C217.257 710.397 221.677 710.644 223.445 710.927C217.911 714.675 218.883 711.21 215.224 714.463C211.121 717.998 214.676 721.923 210.874 725.211C210.255 725.759 208.417 726.802 207.48 725.706C206.543 724.61 206.879 720.986 206.012 719.978C205.145 718.971 204.067 719.413 203.112 719.094C203.501 717.327 203.466 712.218 201.804 710.255C200.902 709.154 199.327 708.884 198.109 709.619C197.171 710.467 198.286 717.185 191.956 722.683C190.949 723.549 191.055 722.064 190.064 722.931C189.074 723.797 189.357 724.946 188.296 725.812C187.235 726.678 179.721 730.444 178.713 731.31C174.081 735.176 173.461 742.067 177.329 746.699C177.478 746.877 177.633 747.051 177.794 747.22C180.11 749.872 182.037 751.604 184.972 748.988C186.086 748.033 186.917 744.48 187.819 743.685L198.427 734.404C199.435 733.537 199.382 734.987 200.372 734.121C201.362 733.255 200.796 730.956 201.786 730.09C202.776 729.224 202.652 729.843 202.652 729.843C204.226 732.512 204.845 734.81 205.694 735.8C207.16 737.98 210.115 738.556 212.295 737.091C212.61 736.879 212.898 736.629 213.154 736.348C218.742 731.487 217.522 719.218 218.918 717.998C222.084 715.258 232.709 719.324 235.909 716.549C238.102 714.64 237.731 709.654 235.485 707.179Z" fill="#00609A"/>
<path fill-rule="evenodd" clip-rule="evenodd" d="M235.485 707.179C237.731 709.743 238.102 714.728 235.98 716.566C232.78 719.342 222.154 715.276 218.989 718.016C217.592 719.236 218.812 731.504 213.225 736.366C211.455 738.307 208.448 738.447 206.507 736.677C206.226 736.422 205.977 736.133 205.765 735.818C204.915 734.828 204.297 732.53 202.723 729.86C202.723 729.86 202.865 729.242 201.857 730.108C200.849 730.974 201.468 733.29 200.443 734.138C199.417 734.987 199.506 733.555 198.498 734.421L187.889 743.702C186.988 744.48 186.121 748.033 185.043 749.006C182.108 751.569 180.181 749.837 177.865 747.238C173.708 742.863 173.886 735.949 178.263 731.793C178.43 731.632 178.605 731.478 178.784 731.328C179.792 730.461 187.359 726.696 188.367 725.83C189.374 724.964 189.056 723.814 190.134 722.948C191.214 722.082 191.019 723.567 192.027 722.701C198.357 717.203 197.33 710.485 198.18 709.637C199.398 708.901 200.973 709.172 201.875 710.273C203.536 712.165 203.642 717.344 203.183 719.112C204.137 719.43 205.216 719.112 206.083 719.996C206.949 720.88 206.702 724.734 207.55 725.724C208.399 726.714 210.326 725.724 210.945 725.229C214.746 721.941 211.192 718.034 215.294 714.48C218.954 711.263 217.981 714.728 223.516 710.945C221.872 710.662 217.398 710.414 216.443 709.407L211.227 703.396C211.227 702.53 211.227 702.53 212.164 701.628C215.277 698.747 233.381 704.704 235.485 707.179Z" fill="white"/>
<path fill-rule="evenodd" clip-rule="evenodd" d="M252.353 736.949C253.749 738.593 254.668 749.978 253.237 751.233C252.229 752.099 245.599 755.776 244.591 756.625C242.823 758.181 236.264 765.464 235.592 767.939L221.235 780.42C220.086 781.427 214.499 781.215 213.367 779.942C210.591 776.725 215.506 762.653 215.789 760.974C211.458 760.62 208.912 762.441 204.121 762.848C201.008 756.537 199.912 751.357 204.58 747.256C211.015 741.669 231.295 730.585 236.723 727.916C243.955 737.144 249.276 733.414 252.353 736.949ZM246.73 743.437C242.523 740.892 239.269 743.154 236.918 740.255L235.15 741.811C234.407 743.579 232.426 746.495 231.242 748.882C233.073 749.86 234.706 751.173 236.051 752.754L246.748 743.473L246.73 743.437ZM230.694 757.173L229.085 757.014L225.92 753.372C224.895 754.132 224.771 753.567 223.763 754.433C221.606 756.201 220.228 760.391 222.49 762.954L223.975 764.722L228.997 760.337C229.262 758.64 230.623 757.721 230.694 757.173Z" fill="white"/>
<path d="M354.227 777.627C361.723 787.19 366.71 789.736 363.368 800.042C359.744 811.18 347.579 807.379 338.615 809.642L338.191 810.932C340.489 813.761 343.495 818.587 344.75 818.993C348.039 820.054 352.883 814.097 355.164 812.93C353.909 817.385 348.392 820.673 346.978 824.986C346.852 826.949 347.155 828.914 347.862 830.749L347.102 833.03C342.663 832.676 343.106 833.454 340.365 832.57C329.987 829.194 336.105 816.183 331.684 814.768C330.429 814.362 329.333 815.087 328.149 814.68C325.16 813.708 322.137 807.609 322.667 805.947C323.428 803.631 348.339 792.034 350.673 784.733C351.098 783.513 350.514 781.922 350.921 780.65C351.664 779.251 352.889 778.171 354.368 777.609L354.227 777.627ZM384.142 785.688C381.72 784.875 376.557 786.855 375.497 788.817C368.424 801.793 367.046 804.144 362.89 816.872C360.38 824.668 362.749 827.479 367.983 836L377.671 839.129C378.785 839.129 399.789 841.904 401.504 836.618C403.025 831.951 400.55 834.727 399.736 827.779C399.222 824.811 397.97 822.022 396.094 819.665C394.043 827.461 389.942 832.305 382.056 832.323L372.155 829.123C371.98 827.944 372.047 826.74 372.349 825.587C373.869 820.867 382.41 814.874 382.657 810.773C384.16 811.887 394.909 814.309 396.147 810.526C396.801 808.51 390.348 800.555 387.307 799.671C387.607 796.454 388.968 787.261 384.142 785.688Z" fill="#00609A"/>
<path fill-rule="evenodd" clip-rule="evenodd" d="M384.142 785.688C389.04 787.261 387.678 796.454 387.324 799.565C390.331 800.449 396.784 808.404 396.165 810.42C394.927 814.203 384.178 811.781 382.675 810.667C382.428 814.768 373.835 820.761 372.367 825.481C372.064 826.634 371.997 827.838 372.172 829.017L382.074 832.217C389.959 832.217 394.061 827.355 396.112 819.559C397.988 821.916 399.24 824.705 399.754 827.673C400.585 834.745 403.06 831.916 401.522 836.512C399.754 841.816 378.802 838.97 377.689 839.023L368 835.894C362.696 827.373 360.398 824.562 362.908 816.766C367.063 804.038 368.477 801.687 375.514 788.711C376.593 786.855 381.72 784.963 384.142 785.688Z" fill="white"/>
<path fill-rule="evenodd" clip-rule="evenodd" d="M354.227 777.627C361.723 787.19 366.71 789.736 363.368 800.042C359.744 811.18 347.579 807.379 338.615 809.642L338.191 810.932C340.489 813.761 343.495 818.587 344.75 818.993C348.039 820.054 352.883 814.097 355.164 812.93C353.909 817.385 348.392 820.673 346.978 824.986C346.852 826.949 347.155 828.914 347.862 830.749L347.102 833.03C342.663 832.676 343.106 833.454 340.365 832.57C329.987 829.194 336.105 816.183 331.684 814.768C330.429 814.362 329.333 815.087 328.149 814.68C325.16 813.708 322.137 807.609 322.667 805.947C323.428 803.631 348.339 792.034 350.673 784.733C351.098 783.513 350.514 781.922 350.921 780.65C351.632 779.283 352.802 778.212 354.227 777.627Z" fill="white"/>
<path fill-rule="evenodd" clip-rule="evenodd" d="M543.212 781.887C549.63 780.296 548.87 782.877 556.296 783.16C555.112 786.696 545.582 792.565 546.148 794.774C546.784 797.338 548.216 796.542 548.764 798.77C548.985 802.507 548.633 806.258 547.721 809.889C548.269 810.154 547.721 810.154 549.082 809.889C552.327 808.371 555.311 806.348 557.922 803.896C561.724 805.028 578.361 801.545 580.164 808.705C580.748 811.127 572.65 817.12 572.438 817.173C571.201 817.491 559.513 816.572 558.205 816.89C555.377 817.597 539.889 825.729 536.548 829.671C535.237 831.633 533.354 833.145 531.155 834.002C525.85 835.346 512.572 828.929 509.708 827.691C509.92 826.365 511.282 823.148 512.572 822.83C513.864 822.511 525.532 822.335 526.805 821.999C535.451 819.842 536.069 813.814 536.76 805.028L536.299 803.172C533.806 803.384 530.395 804.939 528.007 804.02C526.434 803.454 517.983 797.585 517.523 795.747C517.063 793.908 518.124 795.34 518.548 792.476C520.578 793.258 522.739 793.641 524.913 793.608C529.246 792.459 541.144 782.4 543.212 781.887Z" fill="#00609A"/>
<path fill-rule="evenodd" clip-rule="evenodd" d="M543.212 781.887C549.63 780.296 548.87 782.877 556.296 783.16C555.112 786.696 545.582 792.565 546.148 794.774C546.784 797.338 548.216 796.542 548.764 798.77C548.985 802.507 548.633 806.258 547.721 809.889C548.269 810.154 547.721 810.154 549.082 809.889C552.327 808.371 555.311 806.348 557.922 803.896C561.724 805.028 578.361 801.545 580.164 808.705C580.748 811.127 572.65 817.12 572.438 817.173C571.201 817.491 559.513 816.572 558.205 816.89C555.377 817.597 539.889 825.729 536.548 829.671C535.237 831.633 533.354 833.145 531.155 834.002C525.85 835.346 512.572 828.929 509.708 827.691C509.92 826.365 511.282 823.148 512.572 822.83C513.864 822.511 525.532 822.335 526.805 821.999C535.451 819.842 536.069 813.814 536.76 805.028L536.299 803.172C533.806 803.384 530.395 804.939 528.007 804.02C526.434 803.454 517.983 797.585 517.523 795.747C517.063 793.908 518.124 795.34 518.548 792.476C520.578 793.258 522.739 793.641 524.913 793.608C529.246 792.459 541.144 782.4 543.212 781.887Z" fill="white"/>
<path d="M717.824 732.795C720.458 737.144 716.657 740.962 715.791 745.17L711.936 747.485C707.817 744.887 704.104 736.879 697.191 741.51L695.953 739.477C696.273 735.873 698.58 732.749 701.93 731.381C707.747 730.956 714.306 726.979 717.842 732.866L717.824 732.795ZM658.153 705.199C658.685 707.487 659.381 709.732 660.24 711.917C662.838 716.213 675.215 724.486 676.594 726.749C677.495 728.269 670.688 737.709 668.514 739C667.365 739.689 664.341 740.273 663.21 740.945C661.742 741.846 660.699 742.394 661.954 744.48C663.386 746.902 672.81 746.884 675.197 745.47C676.329 744.781 679.599 738.399 680.766 737.798L681.809 737.515C682.092 739.283 684.532 753.425 680.253 755.953C677.089 757.88 677.495 757.509 673.075 756.059L670.052 757.827L673.234 763.131C677.372 763.131 684.179 765.959 688.439 763.378C696.537 758.517 687.909 730.249 687.732 729.684C687.591 726.873 704.67 716.001 701.134 710.132C700.197 708.594 692.294 708.594 689.27 710.521L685.54 712.748C686.336 714.233 688.563 717.68 686.406 718.953C685.275 719.642 685.487 719.059 685.487 719.059C682.57 712.96 678.415 703.591 672.421 702.919C668.885 702.548 665.349 703.626 662.025 702.919L658.153 705.199Z" fill="#00609A"/>
<path fill-rule="evenodd" clip-rule="evenodd" d="M658.207 705.199L662.078 702.884C665.438 703.661 668.921 702.583 672.474 702.884C678.415 703.555 682.623 712.925 685.54 719.024C685.54 719.024 685.328 719.607 686.459 718.918C688.617 717.645 686.459 714.198 685.593 712.713L689.324 710.485C692.418 708.558 700.25 708.558 701.187 710.096C704.724 715.965 687.644 726.837 687.785 729.648C687.962 730.214 696.626 758.481 688.493 763.343C684.232 765.924 677.425 763.166 673.288 763.095L670.105 757.792L673.129 756.024C677.549 757.474 677.142 757.792 680.306 755.918C684.585 753.372 682.075 739.301 681.863 737.48C681.28 737.48 681.863 737.091 680.82 737.762C679.776 738.434 676.382 744.745 675.25 745.435C672.863 746.849 663.439 746.867 662.007 744.445C660.752 742.341 661.795 741.793 663.263 740.909C664.394 740.237 667.418 739.654 668.567 738.965C670.741 737.674 677.549 728.234 676.647 726.714C675.268 724.451 662.891 716.107 660.293 711.882C659.437 709.707 658.741 707.475 658.207 705.199Z" fill="white"/>
<path fill-rule="evenodd" clip-rule="evenodd" d="M717.824 732.795C720.459 737.144 716.657 740.962 715.791 745.17L711.937 747.485C707.817 744.887 704.105 736.879 697.192 741.51L695.954 739.477C696.274 735.873 698.58 732.749 701.93 731.381C707.8 730.886 714.289 726.908 717.824 732.795Z" fill="white"/>
<path d="M780.042 606.609C784.144 601.305 788.883 601.464 793.178 604.841C794.221 605.654 793.178 606.202 794.221 607.051L798.2 610.144C798.96 609.013 807.5 597.911 811.973 601.394C817.895 606.008 805.856 616.738 810.593 620.433L819.24 627.204C820.053 627.875 822.369 636.379 822.775 639.578L814.271 650.433C813.352 651.635 804.424 653.703 803.451 653.738L799.42 650.609L801.895 647.463C807.5 645.96 807.005 646.862 810.257 642.69C813.511 638.518 814.925 634.575 810.116 630.828C809.073 630.032 806.669 628.83 805.095 627.557L804.158 628.176C801.647 631.411 801.594 646.066 798.518 649.973C794.646 654.958 784.374 654.481 779.211 655.559L776.011 653.049C777.019 652.713 777.779 652.165 784.55 642.089C786.442 639.348 786.972 635.159 788.317 631.482C789.943 627.045 796.397 620.238 792.86 614.634L788.405 611.099L787.451 611.735C787.327 611.894 787.574 623.58 786.937 624.41C785.556 626.086 783.099 626.374 781.368 625.065C777.496 622.059 777.319 610.091 780.042 606.609ZM731.562 611.912C735.099 607.51 738.634 611.912 743.744 612.655C743.744 611.311 742.79 610.25 742.383 608.447L743.815 606.679L755.713 615.96C756.615 619.973 756.085 620.079 754.122 622.59C749.561 628.388 737.75 627.893 734.109 625.047C730.466 622.201 728.628 615.713 731.562 611.965V611.912ZM755.873 566.214C754.071 569 753.21 572.29 753.415 575.601L755.713 577.369C757.571 575.371 760.594 574.541 762.132 575.76C764.395 577.528 765.403 593.438 762.45 596.797C762.043 595.029 759.922 583.415 758.207 582.071C757.164 581.258 754.494 580.852 753.663 581.877C752.832 582.902 753.044 586.084 752.231 587.18C750.622 589.266 741.482 588.807 740.491 588.542L738.316 591.299C739.713 592.484 740.738 594.623 741.853 595.418C747.421 599.767 759.94 604.805 763.069 597.186C763.988 602.49 762.644 608.712 761.619 612.69C760.965 615.253 747.563 632.931 754.953 638.677C758.861 641.753 769.504 646.667 774.066 640.869C783.596 628.671 754.264 628.406 777.708 598.441C780.308 595.118 781.651 592.501 785.859 595.754C786.407 596.214 787.627 598.53 787.857 598.636L791.835 601.729L793.32 599.803C793.921 592.731 794.433 588.524 794.54 581.806L790.58 578.73C786.106 582.036 778.327 585.625 775.127 589.726C774.296 590.787 775.427 591.07 774.685 592.148L769.381 598.989C768.727 590.15 776.152 570.033 769.487 564.818C766.092 562.219 759.126 562.095 755.873 566.285V566.214Z" fill="#00609A"/>
<path fill-rule="evenodd" clip-rule="evenodd" d="M755.873 566.285C759.126 562.095 766.092 562.166 769.451 564.782C776.117 569.997 768.691 590.133 769.345 598.954L774.65 592.113C775.392 591.034 774.261 590.751 775.092 589.691C778.291 585.589 786.071 582.001 790.544 578.695L794.504 581.771C794.398 588.489 793.885 592.696 793.284 599.767L791.799 601.694L787.821 598.6C787.644 598.494 786.371 596.179 785.823 595.719C781.616 592.466 780.271 595.082 777.673 598.406C754.228 628.459 783.56 628.671 774.031 640.833C769.469 646.632 758.826 641.717 754.918 638.641C747.51 632.896 760.912 615.147 761.513 612.725C762.538 608.748 763.882 602.525 762.962 597.222C759.798 604.823 747.28 599.785 741.746 595.454C740.72 594.658 739.695 592.519 738.21 591.335L740.385 588.577C741.375 588.842 750.516 589.302 752.125 587.216C752.938 586.173 752.744 582.991 753.557 581.912C754.37 580.834 757.092 581.294 758.101 582.107C759.869 583.45 761.937 595.065 762.344 596.833C762.909 596.673 762.344 597.186 763.245 596.179C765.296 593.509 764.288 577.546 762.026 575.796C760.488 574.576 757.464 575.407 755.607 577.404L753.309 575.637C753.143 572.325 754.041 569.048 755.873 566.285Z" fill="white"/>
<path fill-rule="evenodd" clip-rule="evenodd" d="M731.562 611.983C735.099 607.581 738.634 611.983 743.744 612.725C743.744 611.382 742.79 610.321 742.383 608.518L743.815 606.75L755.713 616.031C756.615 620.044 756.085 620.15 754.122 622.66C749.561 628.459 737.75 627.964 734.109 625.118C730.466 622.271 728.628 615.73 731.562 611.983Z" fill="white"/>
<path fill-rule="evenodd" clip-rule="evenodd" d="M780.041 606.609C784.144 601.305 788.882 601.464 793.178 604.841C794.221 605.654 793.178 606.202 794.221 607.051L798.2 610.144C798.96 609.013 807.5 597.911 811.972 601.394C817.895 606.008 805.856 616.738 810.593 620.433L819.239 627.204C820.052 627.875 822.369 636.379 822.775 639.578L814.271 650.433C813.352 651.635 804.423 653.703 803.45 653.738L799.42 650.609L801.895 647.463C807.5 645.96 807.005 646.862 810.257 642.69C813.511 638.518 814.925 634.575 810.116 630.828C809.073 630.032 806.669 628.83 805.095 627.557C804.458 627.663 804.954 627.133 804.157 628.176C801.647 631.411 801.594 646.066 798.518 649.973C794.646 654.958 784.374 654.481 779.211 655.559L776.011 653.049C777.019 652.713 777.779 652.165 784.55 642.089C786.442 639.348 786.972 635.159 788.316 631.482C789.943 627.045 796.396 620.238 792.86 614.634L788.404 611.099C787.768 611.187 788.245 610.675 787.45 611.735C787.326 611.894 787.573 623.58 786.937 624.41C785.556 626.086 783.099 626.374 781.367 625.065C777.496 622.059 777.319 610.091 780.041 606.609Z" fill="white"/>
<path fill-rule="evenodd" clip-rule="evenodd" d="M85.4317 531.158L82.8858 525.095C86.2805 523.645 87.5004 520.446 86.528 515.425C86.2799 513.542 85.4446 511.785 84.1411 510.404C83.1593 509.423 81.7606 508.981 80.3929 509.22C79.4217 509.418 78.5301 509.897 77.8292 510.599C76.9618 511.73 76.529 513.136 76.6093 514.559L76.1495 521.736C76.1115 523.647 75.7404 525.539 75.0534 527.322C74.4545 528.666 73.501 529.82 72.2952 530.663C70.997 531.597 69.5139 532.242 67.9459 532.555C64.9798 533.213 61.8772 532.44 59.5653 530.469C57.0617 528.261 55.41 525.247 54.8977 521.948C54.2824 519.067 54.4348 516.074 55.3397 513.268C56.0626 510.802 57.7977 508.76 60.1135 507.647L62.8008 513.445C60.2902 514.93 59.3651 517.393 60.025 520.834C60.2171 522.491 60.9798 524.029 62.182 525.183C63.1177 526.09 64.4478 526.461 65.7181 526.173C67.7514 525.784 68.8652 523.822 69.042 520.375L69.378 513.975C69.5725 510.121 70.4741 507.381 72.0477 505.773C73.5451 504.185 75.5076 503.116 77.6524 502.714C80.8814 501.97 84.2698 502.856 86.7224 505.083C89.4368 507.657 91.2055 511.069 91.7437 514.771C92.4525 518.004 92.3124 521.367 91.337 524.529C90.3726 527.462 88.2339 529.863 85.4317 531.158Z" fill="#004098"/>
<path fill-rule="evenodd" clip-rule="evenodd" d="M85.2021 467.782L85.7679 474.306L70.0146 475.685L71.2346 489.544L86.9878 488.148L87.5536 494.706L51.2557 497.853L50.6899 491.33L65.5945 490.021L64.4276 476.162L49.5054 477.488L48.9219 470.929L85.2021 467.782Z" fill="#004098"/>
<path fill-rule="evenodd" clip-rule="evenodd" d="M84.3709 435.007L84.7952 458.661L48.3559 459.297L47.9492 435.873L53.3594 435.785L53.6424 452.632L63.5256 452.456L63.2958 438.914L68.5646 438.826L68.8298 452.367L79.0138 452.19L78.7131 435.078L84.3709 435.007Z" fill="#004098"/>
<path fill-rule="evenodd" clip-rule="evenodd" d="M87.3235 400.942L86.7578 407.306L62.3942 419.026C61.9875 419.203 61.4218 419.521 60.6261 419.928L58.858 420.759L85.3787 423.074L84.919 428.378L48.6211 425.178L49.2576 417.948L71.7647 407.111C71.9415 407.005 73.3206 406.351 75.8666 405.149L50.5836 402.921L51.0256 397.759L87.3235 400.942Z" fill="#004098"/>
<path fill-rule="evenodd" clip-rule="evenodd" d="M90.6473 377.271L89.3035 384.112L74.2222 381.16L51.1846 389.362L52.7051 381.531L69.0772 375.927L55.923 364.931L57.1075 358.762L75.5305 374.354L90.6473 377.271Z" fill="#004098"/>
<path fill-rule="evenodd" clip-rule="evenodd" d="M84.3002 344.018L67.1856 344.955L81.5067 354.289L84.2649 344.018H84.3002ZM100.778 336.328L99.0103 343.099L89.8695 343.7L86.192 357.153L93.8476 362.156L92.4155 367.565L60.3433 346.546L62.4118 338.715L100.778 336.328Z" fill="#004098"/>
<path fill-rule="evenodd" clip-rule="evenodd" d="M113.013 305.48L110.714 311.437L84.0349 316.016C83.6282 316.016 82.9916 316.21 82.0369 316.352L80.1098 316.688L105.04 326.251L103.165 331.184L69.1479 318.12L71.7646 311.349L96.3581 307.124L100.849 306.364L77.1395 297.277L79.0136 292.451L113.013 305.48Z" fill="#004098"/>
<path fill-rule="evenodd" clip-rule="evenodd" d="M112.182 264.113L128.802 272.581L127.475 275.179L122.172 274.72C124.447 278.08 124.605 282.447 122.578 285.963C120.786 290.045 116.936 292.847 112.5 293.299C107.878 293.74 103.227 292.805 99.1339 290.612C94.8236 288.579 91.3055 285.18 89.1267 280.942C87.1219 276.919 87.2477 272.162 89.4627 268.25C90.8646 265.257 93.3561 262.911 96.4288 261.691C99.3333 260.538 102.542 260.402 105.535 261.302L103.854 266.835C99.4168 265.757 96.2874 267.047 94.4309 270.636C93.2798 272.853 93.2798 275.491 94.4309 277.707C95.5625 280.112 98.0731 282.286 101.945 284.266C110.125 288.438 115.53 287.955 118.158 282.816C119.167 280.978 119.334 278.795 118.617 276.823C117.818 274.713 116.217 273.003 114.163 272.068L110.75 278.768L106.03 276.382L112.182 264.113Z" fill="#004098"/>
<path fill-rule="evenodd" clip-rule="evenodd" d="M124.77 211.22L143.936 224.567C146.009 225.916 147.808 227.643 149.24 229.658C150.294 231.43 150.735 233.498 150.496 235.545C150.252 238.147 149.291 240.633 147.72 242.722C146.353 244.856 144.468 246.608 142.239 247.814C140.392 248.738 138.296 249.041 136.263 248.68C133.896 248.118 131.67 247.078 129.721 245.622L110.149 231.903L113.986 226.423L133.151 239.859C135.768 241.626 137.907 242.333 139.498 241.821C141.097 241.298 142.474 240.251 143.406 238.851C144.514 237.451 145.051 235.681 144.909 233.901C144.732 232.275 143.388 230.578 140.877 228.81L121.712 215.41L124.77 211.22Z" fill="#004098"/>
<path fill-rule="evenodd" clip-rule="evenodd" d="M177.211 204.219L173.02 209.046L146.376 204.184C145.969 204.184 145.333 204.025 144.396 203.831L142.486 203.477L162.66 221.031L159.124 225.009L131.648 201.09L136.387 195.61L160.998 200.065L165.488 200.878L146.305 184.226L149.717 180.336L177.211 204.219Z" fill="#004098"/>
<path fill-rule="evenodd" clip-rule="evenodd" d="M187.926 193.63L183.293 198.244L157.498 172.487L162.182 167.856L187.926 193.63Z" fill="#004098"/>
<path fill-rule="evenodd" clip-rule="evenodd" d="M203.961 177.49L199.082 182.033L166.001 163.047L171.093 158.327L196.234 173.053L183.452 146.819L187.447 143.089L203.961 177.49Z" fill="#004098"/>
<path fill-rule="evenodd" clip-rule="evenodd" d="M235.716 152.564L216.832 166.795L194.892 137.714L213.633 123.607L216.868 127.938L203.396 138.068L209.354 145.97L220.174 137.803L223.374 142.01L212.537 150.177L218.654 158.327L232.303 148.021L235.716 152.564Z" fill="#004098"/>
<path fill-rule="evenodd" clip-rule="evenodd" d="M235.238 128.009L242.222 123.678C243.891 122.805 245.199 121.372 245.917 119.63C246.362 118.127 246.088 116.502 245.174 115.228C244.439 113.919 243.127 113.034 241.639 112.841C239.932 112.645 238.215 113.1 236.829 114.114L229.403 118.728L235.256 128.009H235.238ZM264.464 133.578L258.576 137.272L245.846 127.585L238.031 132.464L245.952 145.157L240.365 148.693L221.005 117.756L234.372 109.394C238.12 107.061 241.444 106.194 244.202 106.76C247.013 107.392 249.436 109.166 250.885 111.657C253.385 115.199 253.212 119.974 250.461 123.324L264.464 133.578Z" fill="#004098"/>
<path fill-rule="evenodd" clip-rule="evenodd" d="M264.482 123.342L269.608 119.347C271.872 122.246 275.302 122.6 279.899 120.355C281.644 119.65 283.124 118.413 284.124 116.819C284.837 115.629 284.904 114.161 284.301 112.912C283.878 112.022 283.193 111.282 282.339 110.791C281.016 110.251 279.551 110.183 278.183 110.596L271.111 112.028C269.262 112.484 267.349 112.621 265.454 112.435C264.012 112.205 262.656 111.595 261.529 110.667C260.275 109.68 259.259 108.423 258.559 106.99C257.146 104.299 257.093 101.098 258.417 98.363C259.904 95.3561 262.409 92.9752 265.489 91.6453C268.095 90.3242 271.005 89.7143 273.923 89.8775C276.539 89.9158 279.014 91.0667 280.73 93.0419L275.815 96.9664C273.729 94.8981 271.129 94.6506 267.929 96.2062C266.391 96.8248 265.106 97.9465 264.287 99.3883C263.712 100.534 263.712 101.884 264.287 103.03C265.207 104.904 267.363 105.47 270.775 104.798L277.017 103.472C280.801 102.676 283.682 102.836 285.627 103.932C287.555 104.959 289.103 106.575 290.047 108.546C291.594 111.477 291.594 114.983 290.047 117.915C288.278 121.207 285.439 123.8 282.003 125.269C279.074 126.802 275.793 127.534 272.491 127.39C269.368 127.232 266.46 125.762 264.482 123.342Z" fill="#004098"/>
<path fill-rule="evenodd" clip-rule="evenodd" d="M306.755 113.548L300.708 116.112L286.475 82.5941L292.505 80.0308L306.755 113.548Z" fill="#004098"/>
<path fill-rule="evenodd" clip-rule="evenodd" d="M326.505 106.353L319.874 108.616L309.796 79.518L300.673 82.6647L298.834 77.3436L323.799 68.752L325.637 74.0555L316.479 77.2022L326.505 106.353Z" fill="#004098"/>
<path fill-rule="evenodd" clip-rule="evenodd" d="M356.684 96.7719L349.948 98.5574L345.988 83.7255L328.538 66.6131L336.211 64.5624L348.463 76.8133L352.565 60.1782L358.647 58.5342L352.707 81.9223L356.684 96.7719Z" fill="#004098"/>
<path fill-rule="evenodd" clip-rule="evenodd" d="M412.803 83.1423C415.154 82.922 417.268 81.6137 418.513 79.6067C419.981 77.5207 420.458 73.9143 420.034 68.8054C419.906 65.4547 418.953 62.1874 417.257 59.2945C415.815 57.1154 413.253 55.9544 410.662 56.3069C405.041 56.8196 402.653 61.6104 403.449 70.5555C403.525 74.0271 404.559 77.4104 406.437 80.3315C407.903 82.3395 410.33 83.4116 412.803 83.1423ZM413.191 88.4457C408.781 89.0325 404.37 87.3656 401.451 84.0085C398.349 80.3326 396.523 75.7474 396.253 70.9444C395.676 66.1834 396.776 61.3701 399.365 57.3323C401.764 53.6328 405.783 51.2961 410.185 51.0389C414.538 50.5007 418.878 52.1169 421.819 55.37C425.01 58.974 426.881 63.556 427.123 68.3634C427.79 73.226 426.711 78.1673 424.082 82.3114C421.602 85.9363 417.577 88.203 413.191 88.4457Z" fill="#004098"/>
<path fill-rule="evenodd" clip-rule="evenodd" d="M442.877 86.4655L436.088 86.3418L436.742 49.9248L459.762 50.3314L459.656 55.9354L443.39 55.6526L443.195 65.623L456.03 65.8351L455.924 71.3154L443.124 71.1032L442.877 86.4655Z" fill="#004098"/>
<path fill-rule="evenodd" clip-rule="evenodd" d="M515.083 80.5966L521.007 82.1876C520.191 85.5187 518.193 88.44 515.384 90.4079C512.452 92.3912 508.846 93.1111 505.377 92.4055C502.489 92.0787 499.806 90.753 497.792 88.6578C495.928 86.5461 494.66 83.9779 494.114 81.2153C493.442 78.0444 493.382 74.7741 493.937 71.5807C494.489 66.7742 496.609 62.2829 499.967 58.7995C503.02 55.8318 507.334 54.5502 511.511 55.3699C514.797 55.8214 517.772 57.5411 519.803 60.1607C521.952 63.0988 523.015 66.6915 522.81 70.3256L516.692 69.972C516.445 64.3857 514.429 61.2862 510.645 60.6733C508.276 60.2867 505.888 61.2553 504.457 63.1836C502.475 65.9879 501.257 69.2594 500.921 72.6768C500.159 76.0706 500.363 79.6096 501.505 82.8947C502.342 85.1487 504.34 86.7676 506.721 87.1198C508.58 87.4338 510.483 86.8949 511.9 85.6525C513.499 84.3721 514.62 82.5912 515.083 80.5966Z" fill="#004098"/>
<path fill-rule="evenodd" clip-rule="evenodd" d="M551.523 102.5L545.193 100.767L549.277 85.5108L535.84 81.9044L531.756 97.1783L525.408 95.4989L534.832 60.3018L541.162 61.9989L537.325 76.4596L550.726 80.0482L554.617 65.6229L560.946 67.3023L551.523 102.5Z" fill="#004098"/>
<path fill-rule="evenodd" clip-rule="evenodd" d="M582.198 114.556L560.08 106.053L573.146 72.0403L595.017 80.455L593.054 85.511L577.301 79.4651L573.8 88.693L586.441 93.5368L584.532 98.5044L571.909 93.6252L568.213 103.136L584.214 109.27L582.198 114.556Z" fill="#004098"/>
<path fill-rule="evenodd" clip-rule="evenodd" d="M620.282 132.818L614.324 129.795L628.786 101.368L605.324 125.198L602.265 123.643L607.676 90.62L593.248 119.011L588.439 116.607L604.989 84.1321L614.147 88.7991L610.292 113.16L627.62 95.6759L636.795 100.361L620.282 132.818Z" fill="#004098"/>
<path d="M627.734 137.523L646.411 106.258L652.027 109.612L633.35 140.877L627.734 137.523Z" fill="#004098"/>
<path fill-rule="evenodd" clip-rule="evenodd" d="M665.19 147.084L669.804 151.097C667.606 153.727 664.539 155.483 661.159 156.047C657.658 156.534 654.106 155.605 651.292 153.466C648.841 151.909 647.009 149.546 646.113 146.783C645.386 144.049 645.386 141.173 646.113 138.439C646.912 135.306 648.291 132.35 650.179 129.724C652.761 125.637 656.631 122.527 661.177 120.885C665.22 119.527 669.674 120.255 673.075 122.829C675.866 124.659 677.826 127.508 678.539 130.767C679.189 134.338 678.563 138.023 676.771 141.179L671.466 138.209C673.681 133.083 673.222 129.412 670.087 127.196C668.148 125.785 665.573 125.607 663.457 126.736C660.381 128.353 657.788 130.757 655.943 133.701C653.775 136.416 652.421 139.689 652.035 143.142C651.796 145.525 652.865 147.851 654.829 149.223C656.372 150.302 658.31 150.65 660.134 150.177C662.117 149.742 663.899 148.652 665.19 147.084Z" fill="#004098"/>
<path fill-rule="evenodd" clip-rule="evenodd" d="M689.641 164.921L696.272 149.17L681.597 158.009L689.641 164.956V164.921ZM689.305 183.094L684.002 178.498L687.538 170.048L676.93 160.873L669.115 165.504L664.783 161.845L697.81 142.399L703.91 147.703L689.305 183.094Z" fill="#004098"/>
<path fill-rule="evenodd" clip-rule="evenodd" d="M708.189 203.3L692.648 187.16L718.832 161.845L723.659 166.83L701.718 188.009L712.485 199.146L708.189 203.3Z" fill="#004098"/>
<path fill-rule="evenodd" clip-rule="evenodd" d="M728.574 227.89L724.26 222.34L748.535 203.371L742.578 195.752L746.997 192.287L763.263 213.112L758.79 216.576L752.867 208.94L728.574 227.89Z" fill="#004098"/>
<path fill-rule="evenodd" clip-rule="evenodd" d="M750.887 259.128L737.98 239.275L768.514 219.423L781.298 239.063L776.753 242.033L767.577 227.89L759.285 233.282L766.64 244.649L762.202 247.513L754.847 236.146L746.272 241.697L755.59 256.052L750.887 259.128Z" fill="#004098"/>
<path fill-rule="evenodd" clip-rule="evenodd" d="M775.268 276.541L777.62 282.198C774.505 283.614 770.979 283.852 767.701 282.869C764.334 281.765 761.554 279.359 759.975 276.187C758.428 273.717 757.802 270.781 758.207 267.896C758.741 265.129 759.989 262.55 761.831 260.418C763.929 257.956 766.465 255.9 769.31 254.355C773.433 251.827 778.272 250.727 783.083 251.226C790.665 252.537 795.748 259.745 794.437 267.327C794.414 267.458 794.389 267.588 794.363 267.719C793.357 271.212 791.17 274.25 788.175 276.311L784.639 271.29C788.9 267.666 790.102 264.219 788.264 260.825C787.123 258.714 784.899 257.416 782.5 257.466C779.055 257.607 775.709 258.65 772.794 260.489C769.653 261.984 766.994 264.33 765.12 267.26C763.869 269.316 763.809 271.882 764.961 273.995C765.891 275.632 767.482 276.786 769.328 277.159C771.32 277.649 773.421 277.43 775.268 276.541Z" fill="#004098"/>
<path fill-rule="evenodd" clip-rule="evenodd" d="M779.829 319.233L777.266 313.187L791.817 307.018L786.389 294.219L771.82 300.406L769.275 294.342L802.779 280.112L805.378 286.158L791.57 292.009L797.015 304.826L810.77 298.956L813.37 304.985L779.829 319.233Z" fill="#004098"/>
<path fill-rule="evenodd" clip-rule="evenodd" d="M790.986 354.395L789.218 348.261L807.765 328.567L809.144 327.1C809.427 326.8 809.851 326.305 810.47 325.686L784.833 333.04L783.384 327.949L818.39 317.925L820.407 324.89L803.327 343.01C803.203 343.134 802.107 344.248 800.198 346.316L824.579 339.245L826.011 344.23L790.986 354.395Z" fill="#004098"/>
<path fill-rule="evenodd" clip-rule="evenodd" d="M800.533 375.75C800.979 378.048 802.469 380.009 804.565 381.054C806.793 382.233 810.434 382.356 815.491 381.425C818.859 380.93 822.051 379.599 824.773 377.553C826.799 375.911 827.679 373.235 827.018 370.712C825.975 365.161 820.972 363.305 812.097 365.002C808.65 365.462 805.392 366.849 802.672 369.015C800.804 370.692 799.987 373.247 800.533 375.697V375.75ZM795.353 376.705C794.299 372.388 795.489 367.83 798.518 364.578C801.817 361.111 806.167 358.825 810.894 358.072C815.581 356.971 820.507 357.554 824.808 359.716C828.739 361.724 831.486 365.476 832.217 369.828C833.242 374.103 832.121 378.607 829.211 381.902C825.943 385.427 821.584 387.75 816.835 388.496C812.077 389.64 807.07 389.069 802.69 386.887C798.764 384.854 796.039 381.073 795.353 376.705Z" fill="#004098"/>
<path fill-rule="evenodd" clip-rule="evenodd" d="M802.814 420.511L800.091 398.272L836.247 393.817L837.079 400.694L806.81 404.406L808.755 419.804L802.814 420.511Z" fill="#004098"/>
<path fill-rule="evenodd" clip-rule="evenodd" d="M807.111 439.073C807.125 441.421 808.237 443.625 810.116 445.031C812.096 446.622 815.668 447.4 820.83 447.329C824.218 447.428 827.575 446.668 830.59 445.119C832.91 443.869 834.29 441.384 834.126 438.755C833.997 433.133 829.429 430.399 820.423 430.552C816.946 430.4 813.491 431.201 810.434 432.868C808.27 434.164 807.01 436.556 807.164 439.073H807.111ZM801.806 439.073C801.545 434.627 803.537 430.347 807.111 427.688C810.995 424.848 815.7 423.352 820.512 423.428C825.293 423.173 830.012 424.605 833.843 427.476C837.404 430.116 839.476 434.307 839.413 438.737C839.664 443.129 837.733 447.362 834.25 450.051C830.429 452.959 825.737 454.487 820.936 454.382C816.046 454.704 811.201 453.276 807.27 450.352C803.783 447.67 801.76 443.507 801.806 439.109V439.073Z" fill="#004098"/>
<path fill-rule="evenodd" clip-rule="evenodd" d="M818.32 490.976L799.773 489.332L800.003 486.468L805.078 484.859C801.706 482.598 799.92 478.61 800.48 474.588C800.602 470.121 803.123 466.068 807.075 463.982C811.17 461.873 815.788 460.994 820.371 461.454C825.16 461.731 829.72 463.598 833.33 466.757C836.683 469.739 838.332 474.191 837.733 478.637C837.574 481.948 836.165 485.075 833.79 487.387C831.506 489.523 828.577 490.842 825.463 491.135L824.968 485.372C829.512 484.683 831.934 482.349 832.305 478.301C832.549 475.824 831.58 473.381 829.706 471.742C827.007 469.723 823.742 468.599 820.371 468.525C811.235 467.747 806.404 470.227 805.873 475.967C805.651 478.059 806.324 480.146 807.729 481.713C809.253 483.366 811.371 484.345 813.617 484.435L814.289 476.94L819.593 477.399L818.32 490.976Z" fill="#004098"/>
<path fill-rule="evenodd" clip-rule="evenodd" d="M796.662 510.563L797.758 503.687L812.928 506.109L835.647 497.128L834.445 504.995L818.231 511.182L831.775 521.701L830.785 527.923L811.832 512.985L796.662 510.563Z" fill="#004098"/>
<path fill-rule="evenodd" clip-rule="evenodd" d="M328.855 488.307C328.855 488.307 328.625 585.324 383.541 609.26C438.456 633.196 493.283 624.835 493.283 624.835C493.283 624.835 582.127 610.869 594.68 616.438C583.454 585.519 561.017 555.961 482.162 558.683C403.307 561.406 383.736 554.511 365.471 537.47C347.208 520.428 328.855 488.307 328.855 488.307Z" fill="#004098"/>
<path fill-rule="evenodd" clip-rule="evenodd" d="M401.893 540.386C401.893 540.386 500.32 523.61 525.656 448.955C550.992 374.301 553.821 353.334 607.34 328.002C660.858 302.669 691.746 328.002 691.746 328.002C691.746 328.002 611.742 362.898 594.751 433.399C573.534 482.72 549.63 533.191 466.603 543.197C444.997 544.758 423.283 543.814 401.893 540.386Z" fill="#004098"/>
<path fill-rule="evenodd" clip-rule="evenodd" d="M401.893 701.186V668.288H393.619V662.984C397.65 662.984 400.214 662.065 401.292 660.279C402.399 658.383 402.961 656.217 402.918 654.021H406.65V701.151L401.893 701.186Z" fill="#004098"/>
<path fill-rule="evenodd" clip-rule="evenodd" d="M424.489 669.755C424.42 672.276 425.157 674.752 426.592 676.826C427.93 678.787 430.18 679.922 432.551 679.831C434.722 679.877 436.75 678.749 437.855 676.879C439.149 674.752 439.8 672.297 439.729 669.808C439.911 667.075 439.171 664.361 437.626 662.1C436.448 660.437 434.536 659.447 432.498 659.448C431.271 659.456 430.064 659.74 428.962 660.279C427.612 660.983 426.508 662.081 425.797 663.426C424.825 665.408 424.363 667.602 424.453 669.808L424.489 669.755ZM420.193 690.173H425.496C425.459 691.946 426.09 693.67 427.265 694.999C428.379 696.293 430.014 697.02 431.72 696.979C433.859 697.149 435.934 696.2 437.201 694.469C438.375 692.809 439.139 690.894 439.429 688.883C439.712 686.797 439.959 683.968 440.189 680.309C439.409 681.787 438.225 683.012 436.777 683.844C435.331 684.688 433.695 685.149 432.021 685.188C429.809 685.114 427.661 684.429 425.815 683.208C423.739 681.843 422.072 679.944 420.988 677.71C419.686 675.081 419.041 672.175 419.114 669.242C419.232 666.569 419.831 663.94 420.882 661.481C421.864 659.164 423.467 657.163 425.514 655.701C427.629 654.172 430.191 653.388 432.798 653.473C441.25 653.473 445.481 660.062 445.493 673.237C445.493 677.952 445.387 681.799 445.175 684.781C445.009 687.737 444.493 690.663 443.637 693.497C442.919 696.07 441.478 698.385 439.482 700.161C437.288 701.931 434.517 702.825 431.702 702.671C427.12 702.928 422.905 700.168 421.307 695.865C420.575 694.057 420.196 692.125 420.193 690.173Z" fill="#004098"/>
<path fill-rule="evenodd" clip-rule="evenodd" d="M470.546 685.966C470.523 684.14 470.133 682.335 469.397 680.662C468.747 679.257 467.75 678.041 466.498 677.127C465.361 676.324 463.999 675.898 462.608 675.907C461.28 675.93 459.984 676.315 458.86 677.021C457.462 677.867 456.255 679 455.323 680.344H450.568L453.803 654.622H474.224V660.35H457.923L456.402 672.919C456.979 672.028 457.847 671.365 458.86 671.045C460.202 670.529 461.63 670.278 463.067 670.303C464.675 670.31 466.268 670.603 467.771 671.169C469.379 671.791 470.833 672.757 472.032 673.998C473.423 675.481 474.479 677.249 475.126 679.177C475.958 681.726 476.353 684.398 476.293 687.079C476.282 688.89 475.958 690.682 475.338 692.383C474.71 694.23 473.784 695.961 472.598 697.509C471.428 699.065 469.947 700.361 468.248 701.31C466.531 702.256 464.603 702.749 462.643 702.742C460.262 702.772 457.918 702.162 455.854 700.974C453.86 699.813 452.231 698.116 451.151 696.078C450.034 693.921 449.47 691.522 449.507 689.095H454.811C454.904 690.624 455.334 692.114 456.066 693.461C456.664 694.561 457.543 695.482 458.613 696.131C459.581 696.702 460.688 697 461.812 696.997C463.31 696.993 464.778 696.576 466.056 695.795C467.433 694.934 468.547 693.71 469.273 692.259C470.15 690.456 470.574 688.465 470.511 686.461L470.546 685.966Z" fill="#004098"/>
<path fill-rule="evenodd" clip-rule="evenodd" d="M480.359 701.186C480.235 700.124 480.171 699.056 480.164 697.987C480.021 694.506 480.973 691.068 482.888 688.158C485.193 685.099 488.011 682.462 491.215 680.362C493.854 678.62 496.392 676.732 498.818 674.705C500.163 673.411 500.916 671.622 500.904 669.755C500.98 669.221 501.027 668.685 501.045 668.146C501.093 666.628 500.667 665.132 499.825 663.868C499.123 662.775 498.149 661.885 496.997 661.287C496.076 660.769 495.046 660.472 493.99 660.421C492.521 660.396 491.061 660.635 489.677 661.128C488.362 661.713 487.309 662.765 486.724 664.08C485.813 666.21 485.408 668.521 485.539 670.833H480.908V669.419C480.701 665.558 481.802 661.74 484.037 658.582C486.123 655.913 489.341 654.587 493.884 654.587C495.551 654.578 497.204 654.921 498.729 655.595C500.195 656.288 501.52 657.246 502.636 658.423C503.733 659.639 504.608 661.039 505.218 662.56C505.817 664.11 506.118 665.76 506.102 667.421C506.181 670.411 505.577 673.381 504.334 676.101C502.813 678.953 500.515 681.313 497.704 682.907C496.431 683.65 494.786 684.675 492.788 685.86C490.893 687.003 489.168 688.409 487.661 690.032C486.292 691.462 485.516 693.357 485.486 695.335H506.137V701.169L480.359 701.186Z" fill="#004098"/>
</svg>
